<svg xmlns="http://www.w3.org/2000/svg" xmlns:xlink="http://www.w3.org/1999/xlink" id="Capa_1" x="0px" y="0px" viewBox="0 0 832 242" style="enable-background:new 0 0 832 242;" xml:space="preserve"><style type="text/css">	.st0{fill:#CF3339;}	.st1{fill:none;stroke:#000000;stroke-miterlimit:10;}	.st2{fill:#FFFFFF;}</style><g>	<path class="st2" d="M762.4,60.7L733,126.3l-29.4-65.6h-37.1h-6.8H563h0H447.2v31.4c-6.8-19.9-25-31.4-51.4-31.4h-60.3v57.9   c-4.8-33.3-34.5-59.1-70.4-59.1c-26.1,0-49,13.7-61.4,34l12.9-32.8h-43.5l-21.8,58.7L125,60.7h-20.4l-26.5,58.8L56.3,60.7H12.8   l53.1,134.6h20.7l28.1-65.5l28.3,65.5h20.7l31.6-80.4c-0.9,4.3-1.3,8.7-1.3,13.2c0,37.8,31.9,68.6,71.1,68.6   c35.9,0,65.6-25.7,70.4-59.1v57.7h40.2v-30.4h13.9c0.2,0,0.4,0,0.6,0l22.5,30.8H461l-30.7-41.3c10.4-7.3,19.9-20.2,19.9-43   c0-4.9-0.5-9.5-1.5-13.8h36.1v97.6h40.3V97.7H563v97.6h107v-37h-67.5v-10.4h53.6v-36.3h-53.6V97.7h64V75.4l55.8,120h21.4   l62.8-134.6H762.4z M287.4,134.2c-6,14.3-18.8,38.5-29.5,38.5c-9.6,0-5.9-39.5-11.4-46.4c-4.1-5.1-19.7,14.9-19.7,7.9   c0-16.5,42.7-44.9,59.4-44.9C302.9,89.3,293.8,119,287.4,134.2z M388.8,128.9h-13.1V97.7h16.3c11.6,0,17,5,17,15.6   C408.9,123.7,402.1,128.9,388.8,128.9z"></path></g></svg>